<svg aria-hidden="true" style="position: absolute; width: 0; height: 0; overflow: hidden;" version="1.1" xmlns="http://www.w3.org/2000/svg" xmlns:xlink="http://www.w3.org/1999/xlink">
<defs>
<symbol id="icon-astronaut" viewBox="0 0 32 32">
<path fill="#2196f3" style="fill: var(--color1, #2196f3)" d="M31.974 4.524c-0.063-0.193-0.229-0.333-0.43-0.363l-1.91-0.278-0.855-1.731c-0.179-0.365-0.777-0.365-0.956 0l-0.855 1.731-1.91 0.278c-0.201 0.029-0.367 0.17-0.431 0.363-0.062 0.193-0.011 0.405 0.135 0.547l1.383 1.348-0.326 1.903c-0.034 0.2 0.048 0.402 0.212 0.522 0.166 0.121 0.382 0.135 0.562 0.040l1.709-0.899 1.709 0.899c0.078 0.041 0.164 0.061 0.249 0.061 0.11 0 0.221-0.034 0.314-0.102 0.164-0.119 0.246-0.322 0.212-0.522l-0.326-1.903 1.383-1.348c0.145-0.142 0.197-0.354 0.135-0.547zM29.511 5.851c-0.125 0.122-0.183 0.299-0.153 0.472l0.191 1.114-1-0.526c-0.078-0.041-0.163-0.061-0.249-0.061s-0.17 0.020-0.249 0.061l-1.001 0.526 0.191-1.114c0.030-0.173-0.028-0.349-0.153-0.472l-0.81-0.789 1.119-0.163c0.174-0.025 0.324-0.134 0.402-0.292l0.5-1.013 0.5 1.013c0.078 0.157 0.228 0.267 0.402 0.292l1.119 0.163-0.809 0.789z"></path>
<path fill="#2196f3" style="fill: var(--color1, #2196f3)" d="M26.133 20.522h-1.067v1.067h1.067v-1.067z"></path>
<path fill="#2196f3" style="fill: var(--color1, #2196f3)" d="M26.133 22.656h-1.067v1.067h1.067v-1.067z"></path>
<path fill="#2196f3" style="fill: var(--color1, #2196f3)" d="M27.2 21.589h-1.067v1.067h1.067v-1.067z"></path>
<path fill="#2196f3" style="fill: var(--color1, #2196f3)" d="M25.067 21.589h-1.067v1.067h1.067v-1.067z"></path>
<path fill="#2196f3" style="fill: var(--color1, #2196f3)" d="M22.4 26.389h-1.067v1.067h1.067v-1.067z"></path>
<path fill="#2196f3" style="fill: var(--color1, #2196f3)" d="M22.4 28.522h-1.067v1.067h1.067v-1.067z"></path>
<path fill="#2196f3" style="fill: var(--color1, #2196f3)" d="M23.467 27.456h-1.067v1.067h1.067v-1.067z"></path>
<path fill="#2196f3" style="fill: var(--color1, #2196f3)" d="M21.333 27.456h-1.067v1.067h1.067v-1.067z"></path>
<path fill="#2196f3" style="fill: var(--color1, #2196f3)" d="M16 24.256h-1.067v1.067h1.067v-1.067z"></path>
<path fill="#2196f3" style="fill: var(--color1, #2196f3)" d="M16 26.389h-1.067v1.067h1.067v-1.067z"></path>
<path fill="#2196f3" style="fill: var(--color1, #2196f3)" d="M17.067 25.322h-1.067v1.067h1.067v-1.067z"></path>
<path fill="#2196f3" style="fill: var(--color1, #2196f3)" d="M14.933 25.322h-1.067v1.067h1.067v-1.067z"></path>
<path fill="#2196f3" style="fill: var(--color1, #2196f3)" d="M5.866 6.122h-1.067v1.067h1.067v-1.067z"></path>
<path fill="#2196f3" style="fill: var(--color1, #2196f3)" d="M5.866 8.255h-1.067v1.067h1.067v-1.067z"></path>
<path fill="#2196f3" style="fill: var(--color1, #2196f3)" d="M6.933 7.189h-1.067v1.067h1.067v-1.067z"></path>
<path fill="#2196f3" style="fill: var(--color1, #2196f3)" d="M4.8 7.189h-1.067v1.067h1.067v-1.067z"></path>
<path fill="#212121" style="fill: var(--color2, #212121)" d="M24.715 14.159c-0.287-0.388-0.709-0.637-1.188-0.705-0.481-0.068-0.956 0.058-1.34 0.352l-1.252 0.96-1.898 1.417-1.358-0.541c2.421-1.086 4.114-3.508 4.114-6.32 0-3.823-3.123-6.933-6.961-6.933s-6.961 3.11-6.961 6.933c0 1.386 0.414 2.674 1.12 3.758l-2.764-0.024c-0.002 0-0.003 0-0.005 0-0.009 0-0.015 0.004-0.023 0.005-0.053 0.002-0.105 0.013-0.155 0.031-0.013 0.005-0.026 0.008-0.038 0.013-0.006 0.003-0.013 0.003-0.019 0.006l-3.233 1.596c-0.001 0-0.001 0-0.001 0.001l-1.893 0.911c-0.021 0.009-0.042 0.021-0.063 0.035-0.755 0.502-1.012 1.489-0.598 2.295 0.22 0.429 0.595 0.745 1.056 0.889 0.178 0.055 0.359 0.083 0.539 0.083 0.29 0 0.577-0.071 0.839-0.211l1.388-0.738 2.264-1.169 1.357-0.008-5.442 5.416c-0.001 0.001-0.001 0.001-0.002 0.001l-1.339 1.333c-0.316 0.315-0.49 0.732-0.49 1.178s0.174 0.863 0.49 1.179c0.325 0.323 0.752 0.485 1.179 0.485s0.854-0.162 1.18-0.485l1.314-1.309 1.741-1.3 0.901 0.897-1.762 1.754c-0 0.001-0.001 0.001-0.002 0.001l-1.339 1.333c-0.316 0.315-0.49 0.732-0.49 1.178s0.174 0.863 0.49 1.179c0.325 0.323 0.753 0.485 1.18 0.485s0.855-0.162 1.18-0.485l3.482-3.467c0.001-0.001 0.001-0.001 0.001-0.002l1.010-1-0.004-0.004c0.006-0.006 0.015-0.009 0.022-0.015l5.166-5.658 3.471 0.494c0.025 0.004 0.050 0.005 0.075 0.005 0.065 0 0.127-0.015 0.187-0.038 0.018-0.006 0.033-0.015 0.050-0.023 0.019-0.010 0.039-0.015 0.058-0.027l3.213-2.133c0.012-0.008 0.018-0.021 0.029-0.029 0.013-0.010 0.029-0.014 0.041-0.026l1.271-1.191c0.662-0.62 0.753-1.635 0.212-2.362zM2.13 17.77c-0.173 0.093-0.37 0.111-0.558 0.052-0.187-0.058-0.338-0.186-0.427-0.358-0.161-0.314-0.068-0.695 0.214-0.902l1.314-0.632 0.449 1.313-0.992 0.527zM5.628 15.942l-1.548 0.8-0.439-1.283 2.027-1.001-0.040 1.484zM20.727 9.322c0 0.918-0.219 1.785-0.599 2.559l-4.181-1.899c-0.044-0.573-0.341-1.075-0.788-1.388l1.464-4.86c2.378 0.756 4.105 2.974 4.105 5.588zM8.938 9.322c0-3.235 2.644-5.867 5.894-5.867 0.253 0 0.5 0.021 0.745 0.052l-1.432 4.754c-0.019-0.001-0.037-0.006-0.057-0.006-1.033 0-1.873 0.837-1.873 1.867s0.84 1.867 1.873 1.867c0.694 0 1.294-0.383 1.618-0.945l3.862 1.755c-1.075 1.446-2.795 2.39-4.737 2.39-3.25 0-5.894-2.632-5.894-5.867zM14.894 10.122c0 0.441-0.362 0.8-0.806 0.8s-0.806-0.359-0.806-0.8c0-0.441 0.362-0.8 0.806-0.8s0.806 0.359 0.806 0.8zM2.465 25.146c-0.236 0.234-0.619 0.234-0.854 0.001-0.114-0.114-0.176-0.263-0.176-0.423s0.062-0.309 0.176-0.421l0.962-0.959 0.851 0.848-0.959 0.955zM5.679 28.88c-0.236 0.234-0.619 0.235-0.855 0.001-0.114-0.114-0.176-0.263-0.176-0.423s0.062-0.309 0.176-0.421l0.963-0.959 0.852 0.848-0.96 0.955zM9.16 25.411c-0.001 0-0.001 0-0.002 0.001l-1.765 1.76-0.852-0.848 1.763-1.755c0 0 0 0 0-0s0.001-0.001 0.002-0.001c0.040-0.040 0.065-0.088 0.090-0.135 0.007-0.014 0.020-0.026 0.026-0.040 0.017-0.041 0.019-0.085 0.026-0.129 0.003-0.025 0.014-0.047 0.014-0.073 0-0.036-0.013-0.070-0.020-0.106-0.006-0.032-0.006-0.065-0.019-0.095-0.020-0.050-0.055-0.094-0.091-0.138-0.010-0.012-0.014-0.027-0.025-0.038 0 0 0 0-0.001 0s-0.001-0.002-0.001-0.002l-1.607-1.6c-0.017-0.017-0.039-0.024-0.058-0.038-0.028-0.022-0.055-0.042-0.087-0.058-0.030-0.015-0.061-0.024-0.093-0.033-0.034-0.010-0.067-0.017-0.103-0.020-0.033-0.002-0.063 0.001-0.095 0.005-0.036 0.004-0.069 0.009-0.104 0.020-0.034 0.011-0.063 0.027-0.094 0.045-0.020 0.011-0.042 0.015-0.061 0.029l-1.773 1.324-0.901-0.897 2.399-2.386 4.361 4.289-0.928 0.919zM15.979 18.394c-0.015-0.002-0.030 0.004-0.045 0.003-0.039-0.002-0.076 0.001-0.115 0.007-0.030 0.005-0.059 0.011-0.088 0.021-0.034 0.012-0.065 0.028-0.097 0.047-0.030 0.018-0.057 0.037-0.083 0.061-0.013 0.011-0.028 0.017-0.040 0.029l-4.698 5.146-4.328-4.257 2.833-2.818c0.209-0.208 0.21-0.546 0.002-0.755-0.105-0.105-0.243-0.157-0.381-0.156v-0.001l-2.219 0.013 0.028-1.607 3.104 0.027c1.265 1.294 3.029 2.101 4.981 2.101 0.437 0 0.864-0.045 1.279-0.123 0.040 0.032 0.079 0.065 0.13 0.085l2.41 0.96 0.152 0.758 0.178 0.885-3.003-0.427zM20.020 18.572l-0.313-1.558 1.446-1.080 0.947 1.257-2.080 1.381zM23.774 15.741l-0.838 0.785-0.931-1.236 0.831-0.637c0.155-0.119 0.351-0.168 0.543-0.143 0.193 0.027 0.364 0.128 0.48 0.284 0.217 0.292 0.18 0.699-0.085 0.947z"></path>
<path fill="#212121" style="fill: var(--color2, #212121)" d="M13.602 18.544l-2.143-2.133c-0.207-0.207-0.545-0.207-0.753 0l-2.142 2.133c-0.1 0.101-0.157 0.236-0.157 0.378s0.056 0.278 0.157 0.378l2.142 2.133c0.104 0.103 0.241 0.155 0.377 0.155s0.273-0.052 0.376-0.155l2.143-2.133c0.1-0.1 0.157-0.236 0.157-0.378s-0.057-0.278-0.157-0.378zM11.083 20.303l-1.387-1.381 1.387-1.381 1.387 1.381-1.387 1.381z"></path>
<path fill="#212121" style="fill: var(--color2, #212121)" d="M17.164 5.071l-0.258 1.036c0.071 0.018 1.738 0.452 1.738 2.149h1.067c-0-2.017-1.666-2.965-2.547-3.185z"></path>
<path fill="#212121" style="fill: var(--color2, #212121)" d="M19.711 9.322h-1.067v1.067h1.067v-1.067z"></path>
</symbol>
<symbol id="icon-Client1" viewBox="0 0 32 32">
<path fill="#afb1b8" style="fill: var(--color3, #afb1b8)" d="M12.983 11.611l1.336 1.226h3.727v3.419l1.336 1.226v-5.87h-6.4z"></path>
<path fill="#afb1b8" style="fill: var(--color3, #afb1b8)" d="M11.886 12.785v5.702h6.217v-2.267l-3.744-3.434-2.473-0.001zM16.919 17.654h-4.049v-3.835h0.286v3.575h3.763v0.26z"></path>
<path fill="#afb1b8" style="fill: var(--color3, #afb1b8)" d="M13.676 19.563l0.15-0.308h0.125l-0.218 0.411v0.239h-0.113v-0.239l-0.218-0.411h0.125l0.15 0.308zM14.318 19.754h-0.252l-0.053 0.151h-0.117l0.246-0.65h0.101l0.246 0.65h-0.118l-0.053-0.151zM14.098 19.663h0.188l-0.094-0.27-0.094 0.27zM14.763 19.73c0-0.030 0.008-0.058 0.025-0.083s0.049-0.055 0.097-0.090c-0.025-0.032-0.043-0.059-0.053-0.081s-0.015-0.044-0.015-0.065c0-0.051 0.015-0.091 0.046-0.121s0.073-0.045 0.125-0.045c0.047 0 0.086 0.014 0.116 0.042s0.046 0.062 0.046 0.103c0 0.027-0.007 0.052-0.021 0.075s-0.036 0.045-0.067 0.068l-0.044 0.032 0.125 0.148c0.018-0.036 0.027-0.075 0.027-0.119h0.094c0 0.080-0.019 0.146-0.056 0.197l0.096 0.113h-0.126l-0.037-0.043c-0.046 0.035-0.102 0.052-0.166 0.052s-0.116-0.017-0.154-0.051c-0.038-0.034-0.058-0.079-0.058-0.134zM14.978 19.828c0.037 0 0.071-0.012 0.103-0.037l-0.142-0.167-0.014 0.010c-0.036 0.027-0.054 0.058-0.054 0.093 0 0.030 0.010 0.054 0.029 0.073s0.045 0.028 0.078 0.028zM14.918 19.409c0 0.025 0.015 0.056 0.046 0.094l0.050-0.034 0.014-0.011c0.018-0.016 0.028-0.037 0.028-0.063 0-0.017-0.006-0.031-0.019-0.043s-0.029-0.018-0.049-0.018c-0.021 0-0.038 0.007-0.050 0.021s-0.019 0.032-0.019 0.054zM16.099 19.694c-0.007 0.069-0.032 0.124-0.077 0.163s-0.104 0.058-0.178 0.058c-0.052 0-0.097-0.012-0.137-0.037s-0.070-0.060-0.091-0.105-0.033-0.098-0.033-0.158v-0.061c0-0.061 0.011-0.115 0.033-0.162s0.053-0.083 0.093-0.108c0.041-0.025 0.088-0.038 0.141-0.038 0.072 0 0.129 0.020 0.173 0.058s0.069 0.094 0.076 0.165h-0.113c-0.005-0.047-0.019-0.080-0.041-0.101s-0.054-0.031-0.096-0.031c-0.049 0-0.087 0.018-0.113 0.054s-0.040 0.088-0.040 0.158v0.058c0 0.070 0.012 0.124 0.037 0.161s0.062 0.055 0.111 0.055c0.044 0 0.078-0.010 0.1-0.030s0.036-0.053 0.042-0.1h0.112zM16.719 19.597c0 0.064-0.011 0.12-0.033 0.168s-0.054 0.085-0.095 0.111c-0.041 0.026-0.088 0.038-0.141 0.038s-0.1-0.013-0.141-0.038c-0.041-0.026-0.073-0.063-0.096-0.11s-0.034-0.103-0.034-0.165v-0.037c0-0.063 0.011-0.119 0.033-0.168s0.054-0.086 0.095-0.111c0.041-0.026 0.088-0.039 0.141-0.039s0.1 0.013 0.141 0.038c0.041 0.025 0.073 0.062 0.095 0.11s0.034 0.103 0.034 0.166v0.036zM16.606 19.563c0-0.072-0.014-0.127-0.041-0.166s-0.066-0.058-0.116-0.058c-0.049 0-0.087 0.019-0.115 0.058s-0.041 0.092-0.042 0.162v0.038c0 0.071 0.014 0.127 0.042 0.166s0.067 0.058 0.116 0.058c0.050 0 0.088-0.019 0.115-0.057s0.041-0.094 0.041-0.167v-0.034z"></path>
</symbol>
<symbol id="icon-Client2" viewBox="0 0 32 32">
<path fill="#afb1b8" style="fill: var(--color3, #afb1b8)" d="M15.539 11.782h0.025c0.046 0 0.096 0.005 0.146 0.009 0.218 0.015 0.435 0.048 0.648 0.098v-0.524c-0.219-0.055-0.443-0.091-0.668-0.106-0.086-0.007-0.177-0.011-0.27-0.013h-0.078c-0.453 0.002-0.903 0.060-1.341 0.173-0.499 0.124-0.978 0.319-1.423 0.579v5.193c0.428-0.233 0.884-0.41 1.357-0.529 0.373-0.095 0.755-0.154 1.139-0.175h0.015c0.064-0.003 0.129-0.005 0.195-0.006v-0.532c-0.499 0.006-0.996 0.072-1.48 0.197-0.179 0.047-0.352 0.097-0.514 0.153l-0.185 0.063v-4.049l0.079-0.038c0.604-0.286 1.257-0.453 1.923-0.491 0.006-0 0.011-0 0.017 0 0.074-0.004 0.148-0.006 0.22-0.006h0.083c0.038 0.001 0.077 0.002 0.115 0.004z"></path>
<path fill="#afb1b8" style="fill: var(--color3, #afb1b8)" d="M16.843 12.331c-0.122 0-0.242-0.004-0.358-0.013-0.139-0.010-0.281-0.027-0.416-0.050-0.082-0.014-0.163-0.031-0.242-0.049v5.133c0.333 0.082 0.675 0.123 1.018 0.12 0.453-0.002 0.903-0.060 1.341-0.173 0.499-0.125 0.979-0.32 1.424-0.579v-5.1c-0.428 0.233-0.884 0.41-1.356 0.529-0.461 0.118-0.935 0.179-1.41 0.181zM18.896 12.419l0.185-0.062v4.050l-0.079 0.038c-0.303 0.144-0.62 0.258-0.946 0.34-0.396 0.102-0.802 0.155-1.211 0.157-0.122 0-0.243-0.005-0.361-0.015l-0.127-0.011v-4.165l0.148 0.010c0.107 0.007 0.218 0.010 0.339 0.010 0.518-0.002 1.035-0.068 1.537-0.197 0.173-0.046 0.344-0.097 0.514-0.154z"></path>
<path fill="#afb1b8" style="fill: var(--color3, #afb1b8)" d="M12.935 18.965c-0.027-0.028-0.059-0.049-0.094-0.064s-0.074-0.021-0.112-0.020c-0.041-0.001-0.081 0.007-0.119 0.022-0.035 0.014-0.066 0.035-0.093 0.061s-0.046 0.058-0.060 0.093c-0.014 0.037-0.022 0.076-0.021 0.115v0.694c-0.002 0.049 0.008 0.098 0.027 0.142 0.016 0.036 0.040 0.067 0.069 0.093 0.028 0.023 0.060 0.040 0.095 0.049 0.034 0.009 0.069 0.014 0.104 0.014 0.039 0 0.077-0.008 0.112-0.024 0.035-0.015 0.066-0.037 0.093-0.064s0.046-0.058 0.061-0.093c0.015-0.035 0.022-0.073 0.022-0.111v-0.078h-0.181v0.062c0.001 0.021-0.003 0.042-0.011 0.062-0.006 0.015-0.015 0.028-0.026 0.039-0.011 0.009-0.024 0.016-0.038 0.020-0.012 0.004-0.025 0.006-0.038 0.006-0.016 0.002-0.033-0.001-0.048-0.007s-0.028-0.017-0.038-0.030c-0.017-0.028-0.025-0.060-0.024-0.093v-0.647c-0.001-0.036 0.007-0.071 0.022-0.104 0.009-0.015 0.023-0.026 0.038-0.034s0.033-0.010 0.050-0.008c0.016-0.001 0.031 0.003 0.045 0.009s0.026 0.017 0.036 0.030c0.020 0.027 0.031 0.059 0.030 0.093v0.060h0.18v-0.071c0-0.041-0.007-0.083-0.022-0.121-0.013-0.036-0.034-0.070-0.061-0.098z"></path>
<path fill="#afb1b8" style="fill: var(--color3, #afb1b8)" d="M14.012 18.957c-0.058-0.049-0.131-0.076-0.206-0.076-0.037 0-0.074 0.007-0.108 0.020s-0.068 0.032-0.096 0.057c-0.030 0.027-0.054 0.060-0.070 0.097-0.018 0.042-0.027 0.088-0.026 0.134v0.665c-0.001 0.047 0.008 0.093 0.026 0.136 0.016 0.036 0.040 0.068 0.070 0.093 0.028 0.026 0.060 0.046 0.096 0.059s0.071 0.019 0.108 0.020c0.037-0 0.074-0.007 0.108-0.020 0.036-0.013 0.069-0.033 0.098-0.059s0.052-0.058 0.068-0.093c0.019-0.043 0.028-0.089 0.026-0.136v-0.665c0.001-0.046-0.008-0.092-0.026-0.134-0.016-0.037-0.039-0.070-0.068-0.097zM13.928 19.854c0.002 0.018-0.001 0.036-0.007 0.052s-0.016 0.032-0.029 0.044c-0.024 0.020-0.054 0.031-0.085 0.031s-0.061-0.011-0.085-0.031c-0.013-0.012-0.023-0.027-0.029-0.044s-0.009-0.035-0.007-0.052v-0.665c-0.002-0.018 0.001-0.036 0.007-0.052s0.016-0.032 0.029-0.044c0.024-0.020 0.054-0.031 0.085-0.031s0.061 0.011 0.085 0.031c0.013 0.012 0.023 0.027 0.029 0.044s0.009 0.035 0.007 0.052v0.665z"></path>
<path fill="#afb1b8" style="fill: var(--color3, #afb1b8)" d="M15.427 20.151v-1.26h-0.174l-0.229 0.667h-0.003l-0.231-0.667h-0.173v1.26h0.18v-0.766h0.003l0.176 0.542h0.090l0.178-0.542h0.003v0.766h0.18z"></path>
<path fill="#afb1b8" style="fill: var(--color3, #afb1b8)" d="M16.449 18.979c-0.028-0.031-0.063-0.055-0.102-0.069-0.042-0.014-0.086-0.020-0.13-0.020h-0.267v1.26h0.179v-0.492h0.093c0.056 0.003 0.112-0.009 0.162-0.034 0.041-0.023 0.075-0.056 0.099-0.096 0.021-0.034 0.035-0.071 0.041-0.11 0.007-0.047 0.010-0.095 0.010-0.143 0.002-0.061-0.004-0.121-0.018-0.18-0.012-0.044-0.035-0.083-0.066-0.116zM16.357 19.363c-0.001 0.023-0.006 0.045-0.017 0.066s-0.026 0.035-0.046 0.044c-0.027 0.012-0.056 0.017-0.085 0.016h-0.082v-0.428h0.093c0.028-0.001 0.056 0.004 0.081 0.016 0.019 0.011 0.033 0.027 0.042 0.046 0.010 0.022 0.015 0.046 0.016 0.070 0 0.026 0 0.054 0 0.084s0.002 0.059 0 0.086h-0.002z"></path>
<path fill="#afb1b8" style="fill: var(--color3, #afb1b8)" d="M17.3 18.891h-0.147l-0.278 1.26h0.179l0.053-0.271h0.245l0.053 0.271h0.18l-0.285-1.26zM17.134 19.709l0.088-0.457h0.003l0.088 0.457h-0.18z"></path>
<path fill="#afb1b8" style="fill: var(--color3, #afb1b8)" d="M18.459 19.65h-0.003l-0.271-0.759h-0.173v1.26h0.179v-0.757h0.004l0.274 0.757h0.169v-1.26h-0.179v0.759z"></path>
<path fill="#afb1b8" style="fill: var(--color3, #afb1b8)" d="M19.556 18.891l-0.144 0.501h-0.004l-0.144-0.501h-0.19l0.247 0.727v0.532h0.18v-0.532l0.247-0.727h-0.19z"></path>
<path fill="#afb1b8" style="fill: var(--color3, #afb1b8)" d="M12.434 20.506h0.086v0.243h0.059v-0.243h0.086v-0.050h-0.231v0.050z"></path>
<path fill="#afb1b8" style="fill: var(--color3, #afb1b8)" d="M13.161 20.457l-0.113 0.292h0.062l0.024-0.067h0.117l0.025 0.067h0.064l-0.116-0.292h-0.062zM13.152 20.633l0.040-0.108 0.040 0.108h-0.080z"></path>
<path fill="#afb1b8" style="fill: var(--color3, #afb1b8)" d="M13.88 20.641h0.068v0.038c-0.020 0.016-0.044 0.024-0.069 0.025-0.012 0.001-0.024-0.002-0.034-0.006s-0.020-0.012-0.028-0.022c-0.015-0.022-0.023-0.049-0.022-0.076 0-0.065 0.028-0.098 0.084-0.098 0.015-0.001 0.030 0.002 0.042 0.011s0.021 0.021 0.025 0.036l0.058-0.011c-0.012-0.057-0.054-0.086-0.124-0.086-0.038-0.001-0.074 0.012-0.102 0.038-0.015 0.015-0.026 0.032-0.033 0.052s-0.010 0.040-0.009 0.061c-0.002 0.040 0.012 0.079 0.037 0.11 0.014 0.015 0.032 0.026 0.051 0.034s0.040 0.011 0.060 0.009c0.046 0.001 0.090-0.015 0.124-0.047v-0.115h-0.127v0.049z"></path>
<path fill="#afb1b8" style="fill: var(--color3, #afb1b8)" d="M14.614 20.457h-0.059v0.292h0.205v-0.050h-0.146v-0.243z"></path>
<path fill="#afb1b8" style="fill: var(--color3, #afb1b8)" d="M15.235 20.457h-0.059v0.292h0.059v-0.292z"></path>
<path fill="#afb1b8" style="fill: var(--color3, #afb1b8)" d="M15.842 20.652l-0.12-0.195h-0.057v0.292h0.055v-0.191l0.117 0.191h0.059v-0.292h-0.054v0.195z"></path>
<path fill="#afb1b8" style="fill: var(--color3, #afb1b8)" d="M16.391 20.62h0.146v-0.050h-0.146v-0.064h0.157v-0.050h-0.216v0.292h0.222v-0.050h-0.163v-0.079z"></path>
<path fill="#afb1b8" style="fill: var(--color3, #afb1b8)" d="M17.721 20.572h-0.115v-0.115h-0.059v0.292h0.059v-0.128h0.115v0.128h0.059v-0.292h-0.059v0.115z"></path>
<path fill="#afb1b8" style="fill: var(--color3, #afb1b8)" d="M18.273 20.62h0.146v-0.050h-0.146v-0.064h0.157v-0.050h-0.216v0.292h0.222v-0.050h-0.163v-0.079z"></path>
<path fill="#afb1b8" style="fill: var(--color3, #afb1b8)" d="M19.021 20.62c0.051-0.008 0.077-0.035 0.077-0.081 0.001-0.012-0-0.025-0.006-0.037s-0.013-0.021-0.023-0.029c-0.026-0.013-0.056-0.019-0.086-0.017h-0.124v0.292h0.059v-0.122h0.012c0.012-0.001 0.025 0.001 0.037 0.006 0.009 0.005 0.016 0.013 0.021 0.021l0.064 0.093h0.070l-0.036-0.057c-0.016-0.028-0.038-0.052-0.065-0.070zM18.962 20.58h-0.043v-0.073h0.046c0.020-0.002 0.040 0.001 0.060 0.007 0.004 0.004 0.008 0.009 0.010 0.014s0.003 0.011 0.003 0.017c-0 0.006-0.002 0.011-0.004 0.016s-0.007 0.009-0.011 0.013c-0.019 0.006-0.040 0.008-0.060 0.007z"></path>
<path fill="#afb1b8" style="fill: var(--color3, #afb1b8)" d="M19.586 20.62h0.146v-0.050h-0.146v-0.064h0.157v-0.050h-0.216v0.292h0.222v-0.050h-0.163v-0.079z"></path>
</symbol>
<symbol id="icon-Client3" viewBox="0 0 32 32">
<path fill="#afb1b8" style="fill: var(--color3, #afb1b8)" d="M12.68 19.564c0.003 0 0.005 0.001 0.008 0.002s0.005 0.003 0.007 0.004l0.038 0.038c-0.029 0.031-0.065 0.056-0.106 0.073-0.047 0.018-0.099 0.027-0.15 0.026-0.048 0.001-0.096-0.007-0.141-0.024-0.040-0.016-0.077-0.039-0.106-0.069-0.030-0.031-0.054-0.067-0.069-0.106-0.016-0.044-0.025-0.090-0.024-0.136-0.001-0.047 0.008-0.093 0.026-0.136 0.016-0.039 0.041-0.075 0.073-0.106s0.071-0.053 0.113-0.069c0.046-0.017 0.096-0.025 0.145-0.024 0.046-0.001 0.092 0.006 0.135 0.022 0.037 0.015 0.071 0.036 0.101 0.061l-0.031 0.041c-0.002 0.003-0.005 0.005-0.008 0.007s-0.008 0.003-0.013 0.003c-0.005-0-0.010-0.002-0.014-0.004l-0.017-0.011-0.024-0.014c-0.010-0.005-0.021-0.010-0.031-0.013-0.014-0.005-0.028-0.008-0.043-0.011-0.018-0.003-0.037-0.005-0.056-0.004-0.036-0-0.071 0.006-0.104 0.018-0.031 0.012-0.059 0.029-0.082 0.051-0.023 0.024-0.042 0.051-0.053 0.082-0.013 0.035-0.020 0.071-0.019 0.108-0.001 0.037 0.006 0.074 0.019 0.109 0.011 0.030 0.029 0.058 0.052 0.081 0.022 0.022 0.048 0.039 0.078 0.050s0.064 0.018 0.097 0.017c0.019 0 0.038-0.001 0.057-0.003 0.031-0.003 0.061-0.013 0.087-0.029 0.013-0.008 0.026-0.017 0.037-0.027 0.005-0.004 0.011-0.007 0.018-0.007z"></path>
<path fill="#afb1b8" style="fill: var(--color3, #afb1b8)" d="M13.767 19.372c0.001 0.046-0.008 0.092-0.025 0.135-0.015 0.039-0.039 0.075-0.071 0.105s-0.069 0.053-0.111 0.069c-0.092 0.032-0.194 0.032-0.286 0-0.042-0.016-0.079-0.039-0.111-0.069s-0.056-0.067-0.071-0.106c-0.034-0.087-0.034-0.183 0-0.27 0.016-0.039 0.040-0.076 0.071-0.106 0.031-0.029 0.069-0.052 0.111-0.066 0.092-0.033 0.194-0.033 0.286 0 0.042 0.016 0.080 0.039 0.111 0.069s0.055 0.066 0.071 0.105c0.017 0.043 0.026 0.090 0.025 0.136zM13.668 19.372c0.001-0.037-0.005-0.074-0.018-0.109-0.011-0.030-0.028-0.058-0.050-0.081-0.022-0.022-0.049-0.040-0.079-0.051-0.067-0.024-0.141-0.024-0.208 0-0.030 0.011-0.057 0.029-0.079 0.051-0.023 0.023-0.040 0.051-0.051 0.081-0.024 0.071-0.024 0.146 0 0.217 0.011 0.030 0.028 0.058 0.051 0.081 0.022 0.022 0.049 0.040 0.079 0.051 0.067 0.023 0.141 0.023 0.208 0 0.030-0.011 0.057-0.029 0.079-0.051 0.023-0.024 0.040-0.051 0.050-0.081 0.013-0.035 0.019-0.072 0.018-0.109z"></path>
<path fill="#afb1b8" style="fill: var(--color3, #afb1b8)" d="M14.508 19.486l0.010 0.024c0.004-0.009 0.007-0.017 0.011-0.024s0.008-0.016 0.012-0.024l0.24-0.403c0.005-0.007 0.009-0.011 0.014-0.013 0.006-0.002 0.013-0.003 0.020-0.002h0.071v0.656h-0.084v-0.482c0-0.006 0-0.013 0-0.020s-0-0.015 0-0.023l-0.242 0.409c-0.003 0.006-0.008 0.011-0.014 0.015s-0.013 0.006-0.021 0.006h-0.014c-0.007 0-0.015-0.002-0.021-0.005s-0.011-0.009-0.014-0.015l-0.249-0.412c0 0.008 0 0.016 0 0.023s0 0.015 0 0.021v0.482h-0.081v-0.655h0.071c0.007-0 0.013 0 0.020 0.002s0.010 0.007 0.013 0.013l0.246 0.404c0.005 0.007 0.009 0.015 0.012 0.023z"></path>
<path fill="#afb1b8" style="fill: var(--color3, #afb1b8)" d="M15.412 19.454v0.246h-0.094v-0.655h0.21c0.040-0.001 0.079 0.004 0.117 0.014 0.030 0.008 0.059 0.022 0.083 0.041 0.021 0.018 0.037 0.040 0.047 0.064 0.011 0.027 0.017 0.055 0.016 0.084s-0.005 0.057-0.017 0.084c-0.011 0.025-0.029 0.048-0.051 0.066-0.024 0.020-0.053 0.035-0.083 0.043-0.037 0.011-0.075 0.016-0.113 0.015l-0.114-0.002zM15.412 19.383h0.114c0.025 0 0.049-0.003 0.073-0.010 0.019-0.006 0.037-0.016 0.053-0.028 0.014-0.012 0.025-0.027 0.032-0.043s0.012-0.036 0.011-0.055c0.001-0.018-0.002-0.036-0.009-0.053s-0.019-0.032-0.033-0.045c-0.036-0.026-0.081-0.038-0.127-0.035h-0.114v0.27z"></path>
<path fill="#afb1b8" style="fill: var(--color3, #afb1b8)" d="M16.677 19.7h-0.074c-0.007 0-0.015-0.002-0.021-0.006s-0.010-0.009-0.012-0.015l-0.064-0.158h-0.321l-0.066 0.158c-0.002 0.006-0.006 0.011-0.012 0.015s-0.014 0.007-0.021 0.006h-0.074l0.282-0.656h0.098l0.286 0.656zM16.211 19.457h0.265l-0.112-0.267c-0.009-0.020-0.016-0.041-0.021-0.062l-0.011 0.034c-0.003 0.010-0.007 0.020-0.010 0.028l-0.111 0.267z"></path>
<path fill="#afb1b8" style="fill: var(--color3, #afb1b8)" d="M17.083 19.047c0.006 0.003 0.010 0.007 0.014 0.012l0.412 0.494c0-0.008 0-0.016 0-0.023s0-0.015 0-0.022v-0.465h0.084v0.656h-0.047c-0.007 0-0.013-0.001-0.019-0.004s-0.011-0.007-0.015-0.012l-0.411-0.494c0 0.008 0 0.015 0 0.023s0 0.014 0 0.020v0.468h-0.084v-0.656h0.050c0.006-0 0.012 0.001 0.017 0.003z"></path>
<path fill="#afb1b8" style="fill: var(--color3, #afb1b8)" d="M18.286 19.439v0.261h-0.094v-0.261l-0.26-0.395h0.084c0.007-0 0.014 0.002 0.020 0.006s0.009 0.009 0.013 0.015l0.163 0.255c0.007 0.011 0.012 0.021 0.017 0.030s0.008 0.019 0.012 0.028l0.012-0.028c0.005-0.010 0.010-0.020 0.016-0.030l0.16-0.257c0.003-0.005 0.008-0.010 0.012-0.014s0.013-0.007 0.020-0.007h0.085l-0.261 0.397z"></path>
<path fill="#afb1b8" style="fill: var(--color3, #afb1b8)" d="M14.461 17.943c0.041 0.005 0.082 0.009 0.124 0.012 0.635-0.262 1.171-0.691 1.544-1.233s0.563-1.173 0.548-1.815l-0.699-0.646c0.142 0.683 0.076 1.389-0.192 2.039s-0.726 1.219-1.324 1.642z"></path>
<path fill="#afb1b8" style="fill: var(--color3, #afb1b8)" d="M14.212 17.913l0.019 0.003c0.639-0.422 1.126-1.011 1.398-1.691s0.317-1.42 0.129-2.124l-0.996-0.919c0.403 0.756 0.565 1.602 0.468 2.439s-0.45 1.632-1.018 2.292z"></path>
<path fill="#afb1b8" style="fill: var(--color3, #afb1b8)" d="M17.59 15.665c-0.169 0.705-0.58 1.341-1.172 1.813-0.173 0.139-0.359 0.262-0.557 0.369 0.482-0.131 0.925-0.362 1.295-0.676s0.657-0.702 0.838-1.134l-0.404-0.373z"></path>
<path fill="#afb1b8" style="fill: var(--color3, #afb1b8)" d="M17.432 15.562l-0.575-0.531c-0.011 0.605-0.197 1.197-0.54 1.713s-0.829 0.939-1.408 1.223h0.003c0.129-0 0.258-0.007 0.386-0.021 0.541-0.204 1.019-0.528 1.392-0.944s0.627-0.911 0.742-1.44z"></path>
<path fill="#afb1b8" style="fill: var(--color3, #afb1b8)" d="M14.295 12.794l-0.686-0.634c-0.613 0.219-1.141 0.603-1.514 1.104s-0.573 1.093-0.575 1.7v0c0.002 0.671 0.247 1.322 0.695 1.85s1.074 0.903 1.779 1.066c0.629-0.708 0.998-1.582 1.052-2.497s-0.209-1.821-0.751-2.588z"></path>
<path fill="#afb1b8" style="fill: var(--color3, #afb1b8)" d="M19.017 15.464c-0.003-0.796-0.346-1.558-0.956-2.121s-1.436-0.88-2.298-0.882c-0.398-0-0.793 0.068-1.165 0.2l4.202 3.878c0.144-0.343 0.217-0.707 0.217-1.075z"></path>
</symbol>
<symbol id="icon-Client4" viewBox="0 0 32 32">
<path fill="#bdbdbd" style="fill: var(--color4, #bdbdbd)" d="M10.929 14.616h-0.001c-0.426 0-0.771 0.317-0.771 0.707v0c0 0.391 0.345 0.707 0.771 0.707h0.001c0.426 0 0.771-0.317 0.771-0.707v-0c0-0.391-0.345-0.707-0.771-0.707z"></path>
<path fill="#bdbdbd" style="fill: var(--color4, #bdbdbd)" d="M16.62 14.39c-0.001-0.542-0.237-1.062-0.655-1.446s-0.985-0.6-1.576-0.601v0c-0.592 0.001-1.159 0.217-1.577 0.601s-0.654 0.904-0.655 1.446v0 2.991c0 0 4.463-0.456 4.464-2.991v-0z"></path>
<path fill="#bdbdbd" style="fill: var(--color4, #bdbdbd)" d="M8.594 18.363c0.001 0.377 0.165 0.739 0.456 1.006s0.685 0.417 1.097 0.419v0c0.411-0.001 0.806-0.151 1.097-0.418s0.455-0.628 0.456-1.006v0-2.082c0 0-3.106 0.317-3.106 2.081zM10.147 18.736c-0.080 0-0.159-0.022-0.226-0.063s-0.119-0.099-0.15-0.167c-0.031-0.068-0.039-0.143-0.023-0.215s0.054-0.139 0.111-0.191c0.057-0.052 0.129-0.088 0.208-0.102s0.161-0.007 0.235 0.021c0.074 0.028 0.138 0.076 0.182 0.137s0.069 0.133 0.069 0.207c0 0.049-0.010 0.098-0.031 0.143s-0.050 0.087-0.088 0.121c-0.038 0.035-0.083 0.062-0.132 0.081s-0.102 0.029-0.156 0.029v-0.001z"></path>
<path fill="#bdbdbd" style="fill: var(--color4, #bdbdbd)" d="M13.301 18.529h-0.309v0.319h-0.161v-0.78h0.508v0.13h-0.347v0.201h0.309v0.13zM14.074 18.475c0 0.077-0.014 0.144-0.041 0.202s-0.066 0.102-0.117 0.134c-0.050 0.031-0.108 0.047-0.174 0.047s-0.122-0.016-0.173-0.047-0.090-0.075-0.118-0.133c-0.028-0.058-0.042-0.124-0.042-0.199v-0.039c0-0.077 0.014-0.144 0.041-0.203s0.067-0.103 0.117-0.134c0.051-0.031 0.109-0.047 0.174-0.047s0.123 0.016 0.173 0.047c0.051 0.031 0.090 0.076 0.117 0.134s0.042 0.126 0.042 0.202v0.035zM13.911 18.44c0-0.082-0.015-0.144-0.044-0.186s-0.071-0.064-0.125-0.064c-0.054 0-0.096 0.021-0.125 0.063s-0.044 0.103-0.044 0.184v0.038c0 0.080 0.015 0.141 0.044 0.185s0.071 0.066 0.126 0.066c0.054 0 0.095-0.021 0.124-0.063s0.044-0.104 0.044-0.185v-0.038zM14.595 18.643c0-0.030-0.011-0.054-0.032-0.070s-0.060-0.034-0.116-0.051c-0.056-0.018-0.1-0.036-0.132-0.054-0.089-0.048-0.133-0.112-0.133-0.193 0-0.042 0.012-0.080 0.035-0.113s0.058-0.059 0.102-0.078c0.045-0.019 0.095-0.028 0.15-0.028s0.105 0.010 0.149 0.031c0.044 0.020 0.077 0.048 0.101 0.085s0.036 0.079 0.036 0.125h-0.161c0-0.036-0.011-0.063-0.034-0.083s-0.054-0.030-0.095-0.030c-0.039 0-0.070 0.008-0.092 0.025s-0.033 0.038-0.033 0.065c0 0.025 0.013 0.047 0.038 0.064s0.063 0.033 0.113 0.048c0.091 0.027 0.158 0.062 0.2 0.102s0.063 0.091 0.063 0.152c0 0.067-0.026 0.121-0.077 0.159s-0.12 0.057-0.206 0.057c-0.060 0-0.115-0.011-0.164-0.033s-0.087-0.052-0.113-0.091c-0.026-0.038-0.039-0.082-0.039-0.133h0.161c0 0.086 0.051 0.129 0.154 0.129 0.038 0 0.068-0.008 0.089-0.023s0.032-0.038 0.032-0.065zM15.453 18.198h-0.239v0.65h-0.161v-0.65h-0.236v-0.13h0.635v0.13zM16.014 18.51h-0.309v0.209h0.362v0.129h-0.523v-0.78h0.522v0.13h-0.361v0.186h0.309v0.126zM16.451 18.562h-0.128v0.286h-0.161v-0.78h0.29c0.092 0 0.163 0.021 0.213 0.062s0.075 0.099 0.075 0.174c0 0.053-0.012 0.098-0.035 0.133s-0.058 0.064-0.104 0.085l0.169 0.319v0.008h-0.172l-0.146-0.286zM16.323 18.432h0.13c0.040 0 0.072-0.010 0.094-0.031s0.033-0.049 0.033-0.085c0-0.037-0.011-0.066-0.032-0.087s-0.053-0.032-0.096-0.032h-0.129v0.234zM17.296 18.573v0.275h-0.161v-0.78h0.304c0.059 0 0.11 0.011 0.154 0.032s0.079 0.052 0.103 0.092c0.024 0.039 0.036 0.084 0.036 0.134 0 0.076-0.026 0.137-0.079 0.181s-0.124 0.066-0.217 0.066h-0.141zM17.296 18.443h0.144c0.043 0 0.075-0.010 0.097-0.030s0.034-0.049 0.034-0.086c0-0.038-0.011-0.069-0.034-0.093s-0.054-0.036-0.093-0.036h-0.147v0.245zM18.313 18.51h-0.309v0.209h0.362v0.129h-0.523v-0.78h0.522v0.13h-0.361v0.186h0.309v0.126zM19.059 18.198h-0.239v0.65h-0.161v-0.65h-0.236v-0.13h0.635v0.13zM19.62 18.51h-0.308v0.209h0.362v0.129h-0.523v-0.78h0.522v0.13h-0.361v0.186h0.308v0.126zM20.057 18.562h-0.128v0.286h-0.161v-0.78h0.29c0.092 0 0.163 0.021 0.213 0.062s0.075 0.099 0.075 0.174c0 0.053-0.012 0.098-0.035 0.133s-0.058 0.064-0.104 0.085l0.169 0.319v0.008h-0.172l-0.146-0.286zM19.929 18.432h0.13c0.040 0 0.072-0.010 0.094-0.031s0.033-0.049 0.033-0.085c0-0.037-0.011-0.066-0.032-0.087s-0.053-0.032-0.096-0.032h-0.129v0.234zM20.873 18.643c0-0.030-0.011-0.054-0.032-0.070s-0.060-0.034-0.116-0.051c-0.056-0.018-0.1-0.036-0.132-0.054-0.088-0.048-0.133-0.112-0.133-0.193 0-0.042 0.012-0.080 0.035-0.113s0.058-0.059 0.102-0.078c0.045-0.019 0.095-0.028 0.15-0.028s0.105 0.010 0.149 0.031c0.044 0.020 0.077 0.048 0.101 0.085s0.036 0.079 0.036 0.125h-0.161c0-0.036-0.011-0.063-0.034-0.083s-0.054-0.030-0.095-0.030c-0.039 0-0.070 0.008-0.092 0.025s-0.033 0.038-0.033 0.065c0 0.025 0.013 0.047 0.038 0.064s0.063 0.033 0.113 0.048c0.091 0.027 0.158 0.062 0.2 0.102s0.063 0.091 0.063 0.152c0 0.067-0.025 0.121-0.076 0.159s-0.12 0.057-0.206 0.057c-0.060 0-0.115-0.011-0.164-0.033s-0.087-0.052-0.113-0.091c-0.026-0.038-0.039-0.082-0.039-0.133h0.161c0 0.086 0.051 0.129 0.154 0.129 0.038 0 0.068-0.008 0.089-0.023s0.032-0.038 0.032-0.065z"></path>
</symbol>
<symbol id="icon-Client5" viewBox="0 0 32 32">
<path fill="#afb1b8" style="fill: var(--color3, #afb1b8)" d="M11.426 18.977c0.042 0.052 0.064 0.118 0.063 0.185 0.002 0.044-0.006 0.087-0.023 0.128s-0.043 0.076-0.075 0.105c-0.082 0.062-0.183 0.092-0.285 0.085h-0.501v-1.171h0.491c0.097-0.006 0.193 0.021 0.272 0.078 0.032 0.027 0.057 0.060 0.073 0.098s0.024 0.079 0.022 0.121c0.003 0.065-0.017 0.128-0.057 0.179-0.038 0.047-0.091 0.079-0.149 0.092 0.066 0.012 0.126 0.048 0.169 0.1zM10.839 18.8h0.21c0.048 0.004 0.095-0.010 0.133-0.039 0.016-0.014 0.028-0.032 0.036-0.052s0.011-0.041 0.009-0.063c0.001-0.021-0.002-0.042-0.009-0.062s-0.020-0.038-0.035-0.052c-0.040-0.029-0.088-0.043-0.137-0.039h-0.206v0.307zM11.202 19.249c0.017-0.015 0.030-0.033 0.039-0.054s0.012-0.043 0.011-0.065c0.001-0.023-0.003-0.045-0.011-0.066s-0.022-0.039-0.039-0.054c-0.041-0.031-0.091-0.046-0.142-0.042h-0.22v0.322h0.223c0.050 0.003 0.1-0.011 0.141-0.041z"></path>
<path fill="#afb1b8" style="fill: var(--color3, #afb1b8)" d="M12.429 19.48l-0.273-0.458h-0.103v0.458h-0.235v-1.171h0.444c0.112-0.008 0.223 0.028 0.309 0.1 0.062 0.064 0.1 0.147 0.106 0.236s-0.020 0.177-0.073 0.248c-0.055 0.063-0.13 0.105-0.212 0.119l0.291 0.468h-0.255zM12.054 18.863h0.192c0.133 0 0.2-0.059 0.2-0.177 0.001-0.024-0.002-0.048-0.011-0.071s-0.021-0.043-0.038-0.061c-0.042-0.035-0.096-0.052-0.151-0.047h-0.194l0.002 0.356z"></path>
<path fill="#afb1b8" style="fill: var(--color3, #afb1b8)" d="M13.713 19.244h-0.468l-0.083 0.236h-0.246l0.43-1.158h0.266l0.428 1.158h-0.246l-0.081-0.236zM13.65 19.067l-0.171-0.494-0.171 0.494h0.342z"></path>
<path fill="#afb1b8" style="fill: var(--color3, #afb1b8)" d="M15.319 19.48h-0.233l-0.523-0.796v0.796h-0.232v-1.171h0.232l0.523 0.801v-0.801h0.233v1.171z"></path>
<path fill="#afb1b8" style="fill: var(--color3, #afb1b8)" d="M16.649 19.2c-0.048 0.088-0.122 0.16-0.211 0.207-0.101 0.051-0.214 0.077-0.328 0.074h-0.415v-1.171h0.415c0.113-0.003 0.226 0.022 0.328 0.072 0.089 0.045 0.163 0.116 0.211 0.204 0.048 0.095 0.073 0.201 0.073 0.307s-0.025 0.212-0.073 0.307zM16.382 19.172c0.067-0.078 0.103-0.177 0.103-0.279s-0.037-0.202-0.103-0.279c-0.080-0.070-0.185-0.106-0.292-0.1h-0.162v0.758h0.162c0.107 0.007 0.211-0.029 0.292-0.1z"></path>
<path fill="#afb1b8" style="fill: var(--color3, #afb1b8)" d="M13.858 11.794c0 0 3.008 1.14 2.944 2.79v2.791c0 0-3.006-1.141-2.943-2.791l-0.001-2.79z"></path>
<path fill="#afb1b8" style="fill: var(--color3, #afb1b8)" d="M19.483 16.722c0.568-0.393 1.225-0.636 1.911-0.707v-0.874c-0.791 0.306-1.461 0.86-1.911 1.581z"></path>
<path fill="#afb1b8" style="fill: var(--color3, #afb1b8)" d="M19.142 16.985c0.465-0.94 1.271-1.666 2.253-2.027v-2.517c0 0-4.284 1.624-4.194 3.974v3.974c0 0 0.191-0.073 0.491-0.209 0-0.127 0-0.255 0.014-0.384 0.089-1.091 0.605-2.102 1.436-2.81z"></path>
<path fill="#afb1b8" style="fill: var(--color3, #afb1b8)" d="M18.734 18.462c0.023-0.276 0.073-0.548 0.15-0.814-0.517 0.612-0.831 1.371-0.896 2.171-0.006 0.076-0.010 0.151-0.011 0.229 0.243-0.117 0.526-0.264 0.824-0.436-0.076-0.378-0.098-0.766-0.067-1.151z"></path>
<path fill="#afb1b8" style="fill: var(--color3, #afb1b8)" d="M18.904 18.476c-0.029 0.348-0.011 0.698 0.053 1.042 1.17-0.703 2.486-1.79 2.435-3.103v-0.114c-0.836 0.094-1.619 0.461-2.227 1.045-0.142 0.362-0.23 0.743-0.261 1.131z"></path>
</symbol>
<symbol id="icon-Client6" viewBox="0 0 32 32">
<path fill="#afb1b8" style="fill: var(--color3, #afb1b8)" d="M16.044 15.76c-0.076-0.108-0.113-0.236-0.104-0.364v-0.528c0-0.162 0.035-0.285 0.104-0.369s0.188-0.126 0.356-0.126c0.158 0 0.271 0.036 0.337 0.107 0.072 0.091 0.108 0.203 0.1 0.316v0.124h-0.283v-0.126c0.001-0.041-0.002-0.082-0.008-0.123-0.004-0.028-0.018-0.054-0.040-0.073-0.029-0.021-0.066-0.031-0.103-0.028-0.039-0.003-0.077 0.008-0.108 0.030-0.025 0.022-0.041 0.050-0.047 0.081-0.008 0.043-0.012 0.087-0.011 0.131v0.641c-0.004 0.062 0.008 0.124 0.036 0.18 0.014 0.019 0.034 0.034 0.056 0.044s0.048 0.013 0.073 0.010c0.036 0.003 0.072-0.008 0.1-0.029 0.023-0.021 0.038-0.048 0.042-0.078 0.007-0.043 0.010-0.085 0.009-0.128v-0.13h0.283v0.119c0.008 0.118-0.026 0.234-0.098 0.332-0.065 0.078-0.176 0.118-0.339 0.118s-0.286-0.042-0.356-0.129z"></path>
<path fill="#afb1b8" style="fill: var(--color3, #afb1b8)" d="M17.223 15.766c-0.072-0.082-0.107-0.202-0.107-0.361v-0.556c0-0.157 0.036-0.276 0.107-0.356s0.191-0.121 0.359-0.12c0.166 0 0.285 0.040 0.357 0.12s0.108 0.199 0.108 0.356v0.556c0 0.157-0.036 0.277-0.109 0.36s-0.191 0.124-0.356 0.124c-0.165 0-0.287-0.042-0.359-0.124zM17.713 15.632c0.026-0.052 0.037-0.108 0.034-0.165v-0.681c0.003-0.055-0.008-0.111-0.033-0.161-0.014-0.019-0.034-0.035-0.058-0.044s-0.049-0.013-0.075-0.009c-0.025-0.003-0.051 0-0.075 0.010s-0.044 0.025-0.058 0.044c-0.026 0.050-0.037 0.106-0.034 0.161v0.684c-0.004 0.057 0.008 0.113 0.034 0.165 0.017 0.017 0.037 0.031 0.060 0.041s0.048 0.014 0.073 0.014c0.025 0 0.050-0.005 0.073-0.014s0.043-0.023 0.060-0.041v-0.003z"></path>
<path fill="#afb1b8" style="fill: var(--color3, #afb1b8)" d="M18.386 14.388h0.305l0.229 1.025 0.234-1.026h0.297l0.030 1.48h-0.219l-0.023-1.029-0.226 1.029h-0.176l-0.234-1.033-0.022 1.033h-0.221l0.028-1.48z"></path>
<path fill="#afb1b8" style="fill: var(--color3, #afb1b8)" d="M19.823 14.388h0.475c0.274 0 0.41 0.14 0.41 0.42 0 0.268-0.144 0.402-0.432 0.402h-0.162v0.658h-0.293l0.002-1.48zM20.228 15.021c0.029 0.003 0.058 0.001 0.086-0.007s0.053-0.022 0.075-0.040c0.034-0.050 0.048-0.109 0.042-0.167 0.001-0.045-0.003-0.090-0.014-0.134-0.004-0.015-0.012-0.029-0.022-0.041s-0.023-0.022-0.037-0.030c-0.041-0.018-0.086-0.026-0.131-0.024h-0.114v0.442h0.114z"></path>
<path fill="#afb1b8" style="fill: var(--color3, #afb1b8)" d="M21.13 14.388h0.315l0.323 1.48h-0.273l-0.064-0.341h-0.281l-0.066 0.341h-0.277l0.323-1.48zM21.399 15.356l-0.11-0.621-0.11 0.621h0.219z"></path>
<path fill="#afb1b8" style="fill: var(--color3, #afb1b8)" d="M22.029 14.388h0.205l0.393 0.844v-0.844h0.243v1.48h-0.195l-0.395-0.881v0.881h-0.251l0.001-1.48z"></path>
<path fill="#afb1b8" style="fill: var(--color3, #afb1b8)" d="M23.439 15.304l-0.327-0.914h0.275l0.199 0.587 0.187-0.587h0.269l-0.322 0.914v0.564h-0.281v-0.564z"></path>
<path fill="#afb1b8" style="fill: var(--color3, #afb1b8)" d="M16.496 16.516v0.077h-0.239v0.601h-0.1v-0.601h-0.24v-0.077h0.58z"></path>
<path fill="#afb1b8" style="fill: var(--color3, #afb1b8)" d="M17.246 17.195h-0.077c-0.008 0-0.016-0.002-0.022-0.006s-0.010-0.009-0.013-0.016l-0.069-0.161h-0.332l-0.069 0.161c-0.002 0.007-0.006 0.013-0.011 0.018-0.006 0.005-0.014 0.007-0.022 0.006h-0.077l0.293-0.679h0.102l0.297 0.676zM16.761 16.943h0.277l-0.117-0.276c-0.009-0.021-0.016-0.042-0.022-0.064-0.004 0.013-0.008 0.025-0.011 0.036l-0.011 0.029-0.116 0.276z"></path>
<path fill="#afb1b8" style="fill: var(--color3, #afb1b8)" d="M17.751 17.128c0.018 0.001 0.037 0.001 0.055 0 0.016-0.002 0.032-0.004 0.047-0.008 0.014-0.003 0.028-0.007 0.042-0.012s0.026-0.011 0.039-0.017v-0.153h-0.117c-0.003 0-0.006-0-0.009-0.001s-0.005-0.002-0.007-0.004c-0.002-0.002-0.003-0.003-0.004-0.006s-0.002-0.004-0.001-0.007v-0.052h0.227v0.26c-0.019 0.012-0.038 0.023-0.059 0.032s-0.043 0.017-0.065 0.023c-0.024 0.006-0.048 0.011-0.073 0.014-0.028 0.003-0.057 0.004-0.086 0.004-0.051 0-0.101-0.008-0.148-0.025-0.044-0.016-0.084-0.040-0.117-0.071s-0.058-0.067-0.076-0.108c-0.018-0.045-0.028-0.093-0.027-0.141-0.001-0.048 0.008-0.096 0.026-0.142 0.017-0.040 0.043-0.077 0.076-0.108s0.073-0.055 0.117-0.070c0.050-0.017 0.103-0.026 0.157-0.025 0.027-0 0.055 0.002 0.081 0.006 0.024 0.004 0.047 0.009 0.070 0.017 0.020 0.007 0.040 0.016 0.059 0.027s0.035 0.022 0.051 0.035l-0.028 0.042c-0.002 0.004-0.006 0.007-0.009 0.009s-0.009 0.003-0.013 0.004c-0.006-0-0.013-0.002-0.018-0.005-0.009-0.004-0.018-0.010-0.029-0.016-0.012-0.007-0.026-0.013-0.039-0.018-0.017-0.006-0.035-0.011-0.054-0.015-0.025-0.004-0.049-0.006-0.074-0.006-0.039-0-0.077 0.006-0.113 0.019-0.033 0.012-0.062 0.030-0.086 0.054s-0.043 0.053-0.055 0.084c-0.026 0.074-0.026 0.153 0 0.226 0.013 0.032 0.033 0.061 0.059 0.085 0.024 0.023 0.053 0.042 0.086 0.054 0.037 0.012 0.077 0.016 0.116 0.013z"></path>
<path fill="#afb1b8" style="fill: var(--color3, #afb1b8)" d="M18.685 17.117h0.32v0.077h-0.418v-0.679h0.1l-0.002 0.601z"></path>
<path fill="#afb1b8" style="fill: var(--color3, #afb1b8)" d="M19.338 17.195h-0.1v-0.679h0.1v0.679z"></path>
<path fill="#afb1b8" style="fill: var(--color3, #afb1b8)" d="M19.711 16.519c0.006 0.003 0.011 0.007 0.015 0.012l0.428 0.512c-0.001-0.008-0.001-0.016 0-0.024s0-0.015 0-0.022v-0.484h0.087v0.682h-0.050c-0.008 0.001-0.015-0.001-0.022-0.004s-0.011-0.008-0.016-0.013l-0.428-0.511c0 0.008 0 0.016 0 0.023s0 0.015 0 0.021v0.484h-0.084v-0.679h0.052c0.006 0 0.011 0.001 0.016 0.003z"></path>
<path fill="#afb1b8" style="fill: var(--color3, #afb1b8)" d="M20.98 16.516v0.075h-0.355v0.224h0.288v0.072h-0.288v0.232h0.355v0.075h-0.458v-0.677h0.458z"></path>
<path fill="#afb1b8" style="fill: var(--color3, #afb1b8)" d="M10.478 12.323l4.45 1.159v4.061l-4.45-1.158v-4.061zM10.193 11.977v4.605l5.020 1.308v-4.604l-5.020-1.308z"></path>
<path fill="#afb1b8" style="fill: var(--color3, #afb1b8)" d="M12.883 20.027l-5.021-1.309v-4.604l5.021 1.308v4.605z"></path>
<path fill="#afb1b8" style="fill: var(--color3, #afb1b8)" d="M10.276 12.271l4.392 1.144-1.868 1.714-4.392-1.145 1.868-1.713zM10.193 11.977l-2.33 2.137 5.021 1.308 2.329-2.137-5.020-1.308z"></path>
<path fill="#afb1b8" style="fill: var(--color3, #afb1b8)" d="M13.166 19.768l2.047-1.878-2.047-0.534v2.412z"></path>
</symbol>
<symbol id="icon-clock" viewBox="0 0 32 32">
<path fill="#212121" style="fill: var(--color2, #212121)" d="M31.297 15.301c-0.002-8.452-6.855-15.303-15.308-15.301s-15.303 6.855-15.301 15.308c0.001 6.658 4.307 12.551 10.649 14.576 0.061 0.019 0.124 0.029 0.187 0.029 0.121-0 0.239-0.032 0.342-0.094 0.135-0.080 0.236-0.207 0.283-0.356l3.865-12.25c1.057-0.005 1.909-0.866 1.903-1.923s-0.866-1.909-1.923-1.903c-0.284 0.001-0.565 0.067-0.82 0.191l-5.106-5.107c-0.253-0.245-0.657-0.238-0.902 0.016-0.239 0.247-0.239 0.639 0 0.886l5.103 5.109c-0.392 0.799-0.168 1.764 0.536 2.309l-3.683 11.673c-7.278-2.681-11.004-10.754-8.323-18.032s10.754-11.004 18.032-8.323 11.004 10.754 8.323 18.032c-1.31 3.556-4.001 6.431-7.462 7.973l-0.398-1.874c-0.073-0.344-0.411-0.565-0.756-0.492-0.109 0.023-0.209 0.074-0.292 0.148l-3.837 3.426c-0.263 0.234-0.287 0.637-0.052 0.9 0.076 0.085 0.174 0.149 0.283 0.184l4.899 1.563c0.335 0.108 0.694-0.077 0.802-0.412 0.034-0.106 0.040-0.219 0.017-0.328l-0.391-1.839c5.664-2.388 9.342-7.942 9.329-14.089zM15.992 14.664c0.352 0 0.638 0.286 0.638 0.638s-0.286 0.638-0.638 0.638c-0.352 0-0.638-0.285-0.638-0.638s0.285-0.638 0.638-0.638zM18.093 29.528l2.184-1.948 0.603 2.84-2.787-0.892z"></path>
<path fill="#2196f3" style="fill: var(--color1, #2196f3)" d="M15.354 3.185v1.275c0 0.352 0.285 0.638 0.638 0.638s0.638-0.285 0.638-0.638v-1.275c0-0.352-0.286-0.638-0.638-0.638s-0.638 0.286-0.638 0.638z"></path>
<path fill="#2196f3" style="fill: var(--color1, #2196f3)" d="M3.876 14.664c-0.352 0-0.638 0.286-0.638 0.638s0.285 0.638 0.638 0.638h1.275c0.352 0 0.638-0.285 0.638-0.638s-0.285-0.638-0.638-0.638h-1.275z"></path>
<path fill="#2196f3" style="fill: var(--color1, #2196f3)" d="M28.108 15.939c0.352 0 0.638-0.285 0.638-0.638s-0.285-0.638-0.638-0.638h-1.275c-0.352 0-0.638 0.286-0.638 0.638s0.286 0.638 0.638 0.638h1.275z"></path>
</symbol>
<symbol id="icon-computer" viewBox="0 0 32 32">
<path fill="#2196f3" style="fill: var(--color1, #2196f3)" d="M14.926 14.965h1.066v4.798h-1.066v-4.797z"></path>
<path fill="#2196f3" style="fill: var(--color1, #2196f3)" d="M19.19 17.097h1.066v2.665h-1.066v-2.665z"></path>
<path fill="#2196f3" style="fill: var(--color1, #2196f3)" d="M10.661 18.696h1.066v1.066h-1.066v-1.066z"></path>
<path fill="#2196f3" style="fill: var(--color1, #2196f3)" d="M7.463 18.163h1.066v1.599h-1.066v-1.599z"></path>
<path fill="#212121" style="fill: var(--color2, #212121)" d="M1.599 28.291h25.587c0.883 0 1.599-0.716 1.599-1.599v-2.132c0-0.883-0.716-1.599-1.599-1.599h-0.533v-13.293l3.028-2.868c0.703 0.346 1.553 0.136 2.013-0.499s0.396-1.508-0.152-2.068-1.42-0.644-2.065-0.198c-0.644 0.446-0.873 1.292-0.542 2.002l-2.281 2.163v-1.23c0-0.883-0.716-1.599-1.599-1.599h-21.322c-0.883 0-1.599 0.716-1.599 1.599v15.992h-0.533c-0.883 0-1.599 0.716-1.599 1.599v2.132c0 0.883 0.716 1.599 1.599 1.599zM30.384 4.837c0.294 0 0.533 0.239 0.533 0.533s-0.239 0.533-0.533 0.533c-0.294 0-0.533-0.239-0.533-0.533s0.239-0.533 0.533-0.533zM3.198 6.969c0-0.294 0.239-0.533 0.533-0.533h21.322c0.294 0 0.533 0.239 0.533 0.533v2.239l-1.066 1.013v-2.186c0-0.294-0.239-0.533-0.533-0.533h-19.19c-0.294 0-0.533 0.239-0.533 0.533v13.326c0 0.294 0.239 0.533 0.533 0.533h19.19c0.294 0 0.533-0.239 0.533-0.533v-9.674l1.066-1.010v12.284h-22.388v-15.992zM7.996 13.899c-0.721-0.002-1.354 0.478-1.546 1.174s0.105 1.433 0.725 1.801c0.62 0.368 1.41 0.276 1.928-0.226l1.853 0.93c0.215 0.108 0.476 0.057 0.636-0.123l3.939-4.431 3.872 2.901c0.208 0.156 0.498 0.139 0.686-0.039l3.365-3.188v8.131h-18.124v-12.26h18.124v2.66l-3.771 3.572-3.904-2.927c-0.222-0.166-0.534-0.135-0.718 0.072l-3.993 4.493-1.493-0.746c0.011-0.064 0.018-0.129 0.020-0.193 0-0.883-0.716-1.599-1.599-1.599zM8.529 15.498c0 0.294-0.239 0.533-0.533 0.533s-0.533-0.239-0.533-0.533c0-0.294 0.239-0.533 0.533-0.533s0.533 0.239 0.533 0.533zM11.727 24.026h5.331v0.533c0 0.294-0.239 0.533-0.533 0.533h-4.264c-0.294 0-0.533-0.239-0.533-0.533v-0.533zM1.066 24.56c0-0.294 0.239-0.533 0.533-0.533h9.062v0.533c0 0.883 0.716 1.599 1.599 1.599h4.264c0.883 0 1.599-0.716 1.599-1.599v-0.533h9.062c0.294 0 0.533 0.239 0.533 0.533v2.132c0 0.294-0.239 0.533-0.533 0.533h-25.587c-0.294 0-0.533-0.239-0.533-0.533v-2.132z"></path>
</symbol>
<symbol id="icon-envelope" viewBox="0 0 32 32">
<path fill="#757575" style="fill: var(--color5, #757575)" d="M29 5h-26c-1.654 0-3 1.217-3 2.713v16.28c0 1.496 1.346 2.713 3 2.713h26c1.654 0 3-1.217 3-2.713v-16.28c0-1.496-1.346-2.713-3-2.713zM29 6.809c0.136 0 0.265 0.026 0.383 0.070l-13.383 10.491-13.383-10.491c0.118-0.044 0.247-0.070 0.383-0.070h26zM29 24.897h-26c-0.552 0-1-0.405-1-0.904v-15.203l13.345 10.46c0.188 0.147 0.422 0.221 0.655 0.221s0.467-0.073 0.655-0.221l13.345-10.46v15.203c0 0.499-0.448 0.904-1 0.904z"></path>
</symbol>
<symbol id="icon-iconSend" viewBox="0 0 32 32">
<path fill="#fff" style="fill: var(--color6, #fff)" d="M32 0l-32 18 10.227 3.788 15.773-14.788-11.998 16.186 0.010 0.004-0.012-0.004v8.814l5.735-6.691 7.265 2.691 5-28z"></path>
</symbol>
<symbol id="icon-linkFacebook" viewBox="0 0 32 32">
<path fill="#fff" style="fill: var(--color6, #fff)" d="M20.529 5.313h2.921v-5.088c-0.504-0.069-2.237-0.225-4.256-0.225-4.212 0-7.097 2.649-7.097 7.519v4.481h-4.648v5.688h4.648v14.312h5.699v-14.311h4.46l0.708-5.688h-5.169v-3.919c0.001-1.644 0.444-2.769 2.735-2.769z"></path>
</symbol>
<symbol id="icon-linkInstagram" viewBox="0 0 32 32">
<path fill="#fff" style="fill: var(--color6, #fff)" d="M31.969 9.408c-0.075-1.7-0.35-2.869-0.744-3.882-0.406-1.075-1.032-2.038-1.851-2.838-0.8-0.813-1.769-1.444-2.832-1.844-1.019-0.394-2.182-0.669-3.882-0.744-1.713-0.081-2.257-0.1-6.601-0.1s-4.888 0.019-6.595 0.094c-1.7 0.075-2.869 0.35-3.882 0.744-1.075 0.406-2.038 1.031-2.838 1.85-0.813 0.8-1.444 1.769-1.844 2.832-0.394 1.019-0.669 2.182-0.744 3.882-0.081 1.713-0.1 2.257-0.1 6.601s0.019 4.888 0.094 6.595c0.075 1.7 0.35 2.869 0.744 3.882 0.406 1.075 1.038 2.038 1.85 2.838 0.8 0.813 1.769 1.444 2.832 1.844 1.019 0.394 2.182 0.669 3.882 0.744 1.706 0.075 2.25 0.094 6.595 0.094s4.888-0.019 6.595-0.094c1.7-0.075 2.869-0.35 3.882-0.744 2.151-0.832 3.851-2.532 4.682-4.682 0.394-1.019 0.669-2.182 0.744-3.882 0.075-1.707 0.094-2.251 0.094-6.595s-0.006-4.888-0.081-6.595zM29.087 22.473c-0.069 1.563-0.331 2.407-0.55 2.969-0.538 1.394-1.644 2.5-3.038 3.038-0.563 0.219-1.413 0.481-2.969 0.55-1.688 0.075-2.194 0.094-6.464 0.094s-4.782-0.019-6.464-0.094c-1.563-0.069-2.407-0.331-2.969-0.55-0.694-0.256-1.325-0.663-1.838-1.194-0.531-0.519-0.938-1.144-1.194-1.838-0.219-0.563-0.481-1.413-0.55-2.969-0.075-1.688-0.094-2.194-0.094-6.464s0.019-4.782 0.094-6.464c0.069-1.563 0.331-2.407 0.55-2.969 0.256-0.694 0.663-1.325 1.2-1.838 0.519-0.531 1.144-0.938 1.838-1.194 0.563-0.219 1.413-0.481 2.969-0.55 1.688-0.075 2.194-0.094 6.464-0.094 4.276 0 4.782 0.019 6.464 0.094 1.563 0.069 2.407 0.331 2.969 0.55 0.694 0.256 1.325 0.662 1.838 1.194 0.531 0.519 0.938 1.144 1.194 1.838 0.219 0.563 0.481 1.413 0.55 2.969 0.075 1.688 0.094 2.194 0.094 6.464s-0.019 4.77-0.094 6.458z"></path>
<path fill="#fff" style="fill: var(--color6, #fff)" d="M16.059 7.783c-4.538 0-8.22 3.682-8.22 8.22s3.682 8.22 8.22 8.22c4.539 0 8.22-3.682 8.22-8.22s-3.682-8.22-8.22-8.22zM16.059 21.335c-2.944 0-5.332-2.388-5.332-5.332s2.388-5.332 5.332-5.332c2.944 0 5.332 2.388 5.332 5.332s-2.388 5.332-5.332 5.332z"></path>
<path fill="#fff" style="fill: var(--color6, #fff)" d="M26.524 7.458c0 1.060-0.859 1.919-1.919 1.919s-1.919-0.859-1.919-1.919c0-1.060 0.859-1.919 1.919-1.919s1.919 0.859 1.919 1.919z"></path>
</symbol>
<symbol id="icon-linkLinked" viewBox="0 0 32 32">
<path fill="#fff" style="fill: var(--color6, #fff)" d="M31.992 32v-0.001h0.008v-11.736c0-5.741-1.236-10.164-7.948-10.164-3.227 0-5.392 1.771-6.276 3.449h-0.093v-2.913h-6.364v21.364h6.627v-10.579c0-2.785 0.528-5.479 3.977-5.479 3.399 0 3.449 3.179 3.449 5.657v10.401h6.62z"></path>
<path fill="#fff" style="fill: var(--color6, #fff)" d="M0.528 10.636h6.635v21.364h-6.635v-21.364z"></path>
<path fill="#fff" style="fill: var(--color6, #fff)" d="M3.843 0c-2.121 0-3.843 1.721-3.843 3.843s1.721 3.879 3.843 3.879c2.121 0 3.843-1.757 3.843-3.879-0.001-2.121-1.723-3.843-3.843-3.843v0z"></path>
</symbol>
<symbol id="icon-linkTwiter" viewBox="0 0 32 32">
<path fill="#fff" style="fill: var(--color6, #fff)" d="M32 6.078c-1.19 0.522-2.458 0.868-3.78 1.036 1.36-0.812 2.398-2.088 2.886-3.626-1.268 0.756-2.668 1.29-4.16 1.588-1.204-1.282-2.92-2.076-4.792-2.076-3.632 0-6.556 2.948-6.556 6.562 0 0.52 0.044 1.020 0.152 1.496-5.454-0.266-10.28-2.88-13.522-6.862-0.566 0.982-0.898 2.106-0.898 3.316 0 2.272 1.17 4.286 2.914 5.452-1.054-0.020-2.088-0.326-2.964-0.808 0 0.020 0 0.046 0 0.072 0 3.188 2.274 5.836 5.256 6.446-0.534 0.146-1.116 0.216-1.72 0.216-0.42 0-0.844-0.024-1.242-0.112 0.85 2.598 3.262 4.508 6.13 4.57-2.232 1.746-5.066 2.798-8.134 2.798-0.538 0-1.054-0.024-1.57-0.090 2.906 1.874 6.35 2.944 10.064 2.944 12.072 0 18.672-10 18.672-18.668 0-0.29-0.010-0.57-0.024-0.848 1.302-0.924 2.396-2.078 3.288-3.406z"></path>
</symbol>
<symbol id="icon-locator" viewBox="0 0 32 32">
<path fill="#212121" style="fill: var(--color2, #212121)" d="M30.773 22.098l-8.443-8.505 0.937-4.615c0.242 0.094 0.499 0.144 0.758 0.146h0.006c1.192 0.014 2.17-0.941 2.184-2.133s-0.941-2.17-2.133-2.184c-1.192-0.014-2.17 0.941-2.184 2.133-0.003 0.255 0.039 0.509 0.125 0.749l-4.96 0.605-8.091-8.133c-0.099-0.101-0.235-0.159-0.377-0.16-0.14 0.001-0.274 0.056-0.373 0.155l-1.513 1.504c-0.208 0.208-0.208 0.546 0 0.754l0.814 0.826c-3.153 5.798-2.129 12.978 2.519 17.663 0.043 0.041 0.092 0.074 0.146 0.098-0.034 0.18-0.051 0.364-0.052 0.547v6.187h-6.4c-1.472 0.002-2.665 1.195-2.667 2.667v1.067c0 0.295 0.239 0.533 0.533 0.533h24.533c0.295 0 0.533-0.239 0.533-0.533v-1.067c-0.002-1.472-1.195-2.665-2.667-2.667h-6.4v-2.742c1.003 0.21 2.024 0.317 3.049 0.32 2.458-0.003 4.877-0.615 7.040-1.783l0.818 0.823c0.099 0.101 0.235 0.159 0.377 0.16 0.14-0.001 0.274-0.056 0.373-0.155l1.513-1.504c0.208-0.208 0.208-0.546 0-0.754zM23.28 6.233c0.418-0.415 1.093-0.414 1.508 0.004s0.414 1.093-0.004 1.508c-0.2 0.199-0.47 0.31-0.752 0.31h-0.003c-0.589-0.003-1.064-0.483-1.061-1.072 0.002-0.282 0.115-0.552 0.314-0.751h-0.002zM22.024 9.738l-0.598 2.946-1.175-1.182 1.774-1.763zM21.419 8.836l-1.92 1.909-1.485-1.493 3.405-0.415zM24.004 28.8c0.884 0 1.6 0.716 1.6 1.6v0.533h-23.467v-0.533c0-0.884 0.716-1.6 1.6-1.6h20.267zM16.537 26.667v1.067h-5.333v-1.067h5.333zM11.204 25.6v-4.053c0-1.294 1.196-2.347 2.667-2.347s2.667 1.053 2.667 2.347v4.053h-5.333zM17.604 23.904v-2.357c0-1.882-1.675-3.413-3.733-3.413-1.331-0.020-2.576 0.657-3.281 1.786-4.058-4.274-4.971-10.645-2.279-15.887l18.602 18.708c-2.872 1.461-6.165 1.873-9.309 1.163zM28.893 23.22l-21.057-21.181 0.755-0.752 7.935 7.98c0.004 0 0.006 0.007 0.010 0.010l13.115 13.191-0.757 0.752z"></path>
<path fill="#2196f3" style="fill: var(--color1, #2196f3)" d="M13.876 20.267h-0.005c-0.884-0.001-1.601 0.714-1.602 1.598s0.714 1.601 1.598 1.602h0.005c0.884 0.001 1.601-0.714 1.602-1.598s-0.714-1.601-1.598-1.602zM14.249 22.245c-0.1 0.1-0.236 0.156-0.378 0.155-0.295-0.002-0.532-0.242-0.531-0.536 0.001-0.141 0.057-0.276 0.157-0.375s0.233-0.154 0.373-0.155c0.295 0.002 0.532 0.241 0.53 0.536-0.001 0.141-0.057 0.276-0.157 0.375h0.005z"></path>
</symbol>
<symbol id="icon-phone" viewBox="0 0 32 32">
<path fill="#757575" style="fill: var(--color5, #757575)" d="M23.467 0h-14.933c-1.765 0-3.2 1.298-3.2 2.894v25.083c0 1.596 1.435 2.894 3.2 2.894h14.933c1.765 0 3.2-1.298 3.2-2.894v-25.083c0-1.596-1.435-2.894-3.2-2.894zM8.533 1.929h14.933c0.589 0 1.067 0.432 1.067 0.965v20.259h-17.067v-20.259c0-0.532 0.478-0.965 1.067-0.965zM23.467 28.941h-14.933c-0.589 0-1.067-0.432-1.067-0.965v-2.894h17.067v2.894c0 0.532-0.478 0.965-1.067 0.965z"></path>
</symbol>
</defs>
</svg>
